<?xml version="1.0" encoding="UTF-8"?>
<svg version="1.1" xmlns="http://www.w3.org/2000/svg" width="208" height="288">
<path d="M0 0 C0.70176361 0.0012085 1.40352722 0.00241699 2.1265564 0.00366211 C30.00296185 0.13347259 54.90685871 7.81820698 75.25 27.5625 C88.88468362 41.3854297 97.63368676 59.44469683 101.5 78.375 C101.76490234 79.61092896 101.76490234 79.61092896 102.03515625 80.87182617 C103.79509339 90.00857126 103.8981638 99.04288591 103.875 108.3125 C103.87445618 109.13003754 103.87391235 109.94757507 103.87335205 110.78988647 C103.78494423 139.71303704 97.05756535 166.30012426 77.5 188.375 C76.92121094 189.04789063 76.34242188 189.72078125 75.74609375 190.4140625 C57.32330259 210.38866544 30.40670802 216.9094858 4.26416016 218.27294922 C-22.75511886 219.27048134 -50.21836467 212.50091687 -70.625 194.125 C-83.0278863 182.51699262 -91.30350994 169.49615149 -96.8125 153.5 C-97.04283936 152.84249756 -97.27317871 152.18499512 -97.51049805 151.50756836 C-101.9834482 137.64224361 -103.05223064 123.52511113 -102.9375 109.0625 C-102.93479095 108.2565036 -102.93208191 107.4505072 -102.92929077 106.62008667 C-102.86602311 94.18098766 -102.12390772 82.35146414 -98.5 70.375 C-98.13777344 69.12976563 -97.77554688 67.88453125 -97.40234375 66.6015625 C-93.11255163 53.42681111 -86.54931304 41.83113902 -77.5 31.375 C-76.58734375 30.16650391 -76.58734375 30.16650391 -75.65625 28.93359375 C-57.48871577 7.37610295 -26.88240248 -0.08594347 0 0 Z M-34.1875 22.5 C-58.95321473 53.2898075 -57.89544186 101.50251273 -54.1875 138.609375 C-51.57909183 161.82110247 -45.59688916 187.08660726 -26.5 202.375 C-14.24635536 210.08551791 -2.07744646 212.05805047 12.0625 209.25 C25.31692066 205.86188774 34.65316578 197.4834186 41.6875 185.9375 C62.46387116 148.71465759 61.19229261 93.39666804 50.5 53.375 C45.88929761 37.7671725 38.66484247 22.56945731 24.578125 13.4921875 C4.84543332 2.91014818 -18.74928845 5.87423372 -34.1875 22.5 Z " fill="#315830" transform="translate(103.5,31.625)"/>
<path d="M0 0 C3.78959324 2.01080458 4.71078061 3.28383771 6.3125 7.25 C6.539375 8.1575 6.76625 9.065 7 10 C10.465 9.505 10.465 9.505 14 9 C14.33 12.63 14.66 16.26 15 20 C15.99 20 16.98 20 18 20 C18 18.906875 18 17.81375 18 16.6875 C18 14.45833333 18 12.22916667 18 10 C19.98 9.67 21.96 9.34 24 9 C24 12.96 24 16.92 24 21 C24.99 20.67 25.98 20.34 27 20 C26.34 21.32 25.68 22.64 25 24 C20.05 24 15.1 24 10 24 C8.85185003 21.70370006 8.69230191 19.92301914 8.4375 17.375 C8.35371094 16.55773437 8.26992187 15.74046875 8.18359375 14.8984375 C8.12300781 14.27195312 8.06242187 13.64546875 8 13 C7.63648438 13.81404297 7.63648438 13.81404297 7.265625 14.64453125 C6.76289062 15.71767578 6.76289062 15.71767578 6.25 16.8125 C5.92515625 17.52019531 5.6003125 18.22789062 5.265625 18.95703125 C3.75662163 21.39286077 2.48496539 22.56993111 0 24 C-5.14784445 24.85158083 -9.61650697 24.83009582 -14.125 22.125 C-17.75908586 18.00636936 -17.32487907 14.2523287 -17.29296875 8.9296875 C-16.92088586 5.20885855 -15.83493639 3.41803398 -13 1 C-9.05489381 -0.9725531 -4.30066993 -0.44125371 0 0 Z M-8.75 2.3125 C-11.16248829 5.56935919 -11.16295215 7.85897186 -11.1875 11.875 C-11.20167969 12.92429687 -11.21585937 13.97359375 -11.23046875 15.0546875 C-11.002551 17.96739914 -10.62568158 19.59779011 -9 22 C-6.65127469 23.16977494 -6.65127469 23.16977494 -4 23 C-1.52520122 21.78198446 -1.52520122 21.78198446 0 19 C1.22063333 14.21711023 1.57205468 9.63106838 -0.125 4.9375 C-1.71617486 1.85320652 -1.71617486 1.85320652 -4.5 0.875 C-7.03037872 0.76789412 -7.03037872 0.76789412 -8.75 2.3125 Z " fill="#315830" transform="translate(92,112)"/>
<path d="M0 0 C1.42505859 0.00580078 1.42505859 0.00580078 2.87890625 0.01171875 C5.4375 0.3125 5.4375 0.3125 8.4375 2.3125 C8.625 4.9375 8.625 4.9375 8.4375 7.3125 C6.7875 7.3125 5.1375 7.3125 3.4375 7.3125 C3.1075 5.6625 2.7775 4.0125 2.4375 2.3125 C0.7875 2.3125 -0.8625 2.3125 -2.5625 2.3125 C-2.8925 3.9625 -3.2225 5.6125 -3.5625 7.3125 C-2.69625 7.56 -1.83 7.8075 -0.9375 8.0625 C2.9260269 9.49343589 6.49099564 11.36599564 9.4375 14.3125 C9.75 17.6875 9.75 17.6875 9.4375 21.3125 C7.25080498 23.53997254 5.88566457 24.2512069 2.78125 24.67578125 C1.8428125 24.65902344 0.904375 24.64226562 -0.0625 24.625 C-1.0009375 24.62113281 -1.939375 24.61726563 -2.90625 24.61328125 C-5.58337334 24.3101364 -7.26215635 23.67426004 -9.5625 22.3125 C-9.5625 20.3325 -9.5625 18.3525 -9.5625 16.3125 C-7.6875 15.6875 -7.6875 15.6875 -5.5625 15.3125 C-3.34060176 17.53439824 -2.63651108 19.39732708 -1.5625 22.3125 C0.0875 22.3125 1.7375 22.3125 3.4375 22.3125 C3.36398554 19.90830715 3.36398554 19.90830715 2.4375 17.3125 C-0.03738557 15.47797209 -0.03738557 15.47797209 -3.0625 14.125 C-8.47895354 11.47959292 -8.47895354 11.47959292 -9.5625 9.3125 C-9.875 6.375 -9.875 6.375 -9.5625 3.3125 C-6.53068162 0.28068162 -4.20256809 -0.07433114 0 0 Z " fill="#315830" transform="translate(73.5625,144.6875)"/>
<path d="M0 0 C2.97 0 5.94 0 9 0 C9.66 2.64 10.32 5.28 11 8 C11.66 8 12.32 8 13 8 C13.66 5.69 14.32 3.38 15 1 C14.34 0.67 13.68 0.34 13 0 C15.31 0 17.62 0 20 0 C19.29875 1.0725 18.5975 2.145 17.875 3.25 C15.00173443 7.81775552 12.66429401 12.59949269 10.33203125 17.4609375 C9 20 9 20 7 22 C4.375 22.125 4.375 22.125 2 22 C1.67 20.35 1.34 18.7 1 17 C4.28976808 15.90341064 5.71303767 16.20046862 9 17 C8.43410156 15.94039062 7.86820313 14.88078125 7.28515625 13.7890625 C6.54425714 12.40104898 5.80337247 11.01302774 5.0625 9.625 C4.68931641 8.92632812 4.31613281 8.22765625 3.93164062 7.5078125 C1.11328125 2.2265625 1.11328125 2.2265625 0 0 Z " fill="#315830" transform="translate(125,154)"/>
<path d="M0 0 C0.7734375 -0.00773438 1.546875 -0.01546875 2.34375 -0.0234375 C5.04583262 0.47586038 5.92075936 1.14022551 7.5 3.375 C7.8984375 5.53125 7.8984375 5.53125 7.875 7.875 C7.88273437 8.6484375 7.89046875 9.421875 7.8984375 10.21875 C7.39913962 12.92083262 6.73477449 13.79575936 4.5 15.375 C2.34375 15.7734375 2.34375 15.7734375 0 15.75 C-0.7734375 15.75773438 -1.546875 15.76546875 -2.34375 15.7734375 C-5.04583262 15.27413962 -5.92075936 14.60977449 -7.5 12.375 C-7.8984375 10.21875 -7.8984375 10.21875 -7.875 7.875 C-7.88273437 7.1015625 -7.89046875 6.328125 -7.8984375 5.53125 C-7.04925027 0.93564854 -4.36327591 -0.04363276 0 0 Z M-0.5 1.375 C-3.33022097 5.37060608 -2.26210446 8.80237323 -1.5 13.375 C-0.51 13.375 0.48 13.375 1.5 13.375 C2.79616272 7.08648966 2.79616272 7.08648966 0.5 1.375 C0.17 1.375 -0.16 1.375 -0.5 1.375 Z " fill="#315830" transform="translate(101.5,153.625)"/>
<path d="M0 0 C0.89203125 0.00902344 1.7840625 0.01804687 2.703125 0.02734375 C3.37859375 0.03894531 4.0540625 0.05054687 4.75 0.0625 C4.75 1.7125 4.75 3.3625 4.75 5.0625 C-0.125 4.1875 -0.125 4.1875 -1.25 3.0625 C-2.4171568 6.56397041 -2.38357453 9.38920036 -2.25 13.0625 C-1.92 13.7225 -1.59 14.3825 -1.25 15.0625 C-4.22 15.0625 -7.19 15.0625 -10.25 15.0625 C-9.92 14.4025 -9.59 13.7425 -9.25 13.0625 C-9.17990267 11.58484834 -9.16564061 10.10415186 -9.1875 8.625 C-9.19652344 7.84253906 -9.20554687 7.06007813 -9.21484375 6.25390625 C-9.22644531 5.53074219 -9.23804687 4.80757813 -9.25 4.0625 C-9.25 3.0725 -9.25 2.0825 -9.25 1.0625 C-6.09493858 0.12630187 -3.28413498 -0.0432123 0 0 Z " fill="#315830" transform="translate(128.25,120.9375)"/>
<path d="M0 0 C0.90105469 0.00902344 1.80210938 0.01804688 2.73046875 0.02734375 C3.41753906 0.03894531 4.10460937 0.05054688 4.8125 0.0625 C5.1425 1.3825 5.4725 2.7025 5.8125 4.0625 C4.1625 4.3925 2.5125 4.7225 0.8125 5.0625 C0.8125 4.4025 0.8125 3.7425 0.8125 3.0625 C0.1525 3.0625 -0.5075 3.0625 -1.1875 3.0625 C-1.21448189 4.68740954 -1.23388757 6.31244633 -1.25 7.9375 C-1.26160156 8.84242188 -1.27320312 9.74734375 -1.28515625 10.6796875 C-1.34999257 13.0793585 -1.34999257 13.0793585 -0.1875 15.0625 C-3.1575 15.0625 -6.1275 15.0625 -9.1875 15.0625 C-8.8575 14.4025 -8.5275 13.7425 -8.1875 13.0625 C-8.11740267 11.58484834 -8.10314061 10.10415186 -8.125 8.625 C-8.13402344 7.84253906 -8.14304687 7.06007812 -8.15234375 6.25390625 C-8.16394531 5.53074219 -8.17554687 4.80757812 -8.1875 4.0625 C-8.1875 3.0725 -8.1875 2.0825 -8.1875 1.0625 C-5.17259443 0.05753148 -3.14568308 -0.04085303 0 0 Z " fill="#315830" transform="translate(119.1875,153.9375)"/>
<path d="M0 0 C0 1.65 0 3.3 0 5 C0.99 5.33 1.98 5.66 3 6 C2.01 6 1.02 6 0 6 C0.33 9.3 0.66 12.6 1 16 C1.66 16 2.32 16 3 16 C2.67 17.32 2.34 18.64 2 20 C0.00045254 20.04254356 -2.00041636 20.04080783 -4 20 C-5 19 -5 19 -5.09765625 16.05859375 C-5.08605469 14.86363281 -5.07445313 13.66867188 -5.0625 12.4375 C-5.05347656 11.23996094 -5.04445313 10.04242188 -5.03515625 8.80859375 C-5.02355469 7.88175781 -5.01195313 6.95492187 -5 6 C-5.66 6 -6.32 6 -7 6 C-7 5.34 -7 4.68 -7 4 C-1.47058824 0 -1.47058824 0 0 0 Z " fill="#315830" transform="translate(90,149)"/>
</svg>
